<svg width="125" height="125" viewBox="0 0 125 125" fill="none" xmlns="http://www.w3.org/2000/svg">
<g id="mask-hand">
<g clip-path="url(#clip0)">
<path id="Vector" d="M62.5 0C50.1387 0 38.0549 3.66556 27.7769 10.5331C17.4988 17.4007 9.488 27.1619 4.75753 38.5823C0.0270495 50.0027 -1.21066 62.5693 1.20092 74.6931C3.61249 86.817 9.56504 97.9534 18.3058 106.694C27.0466 115.435 38.183 121.388 50.3069 123.799C62.4307 126.211 74.9973 124.973 86.4177 120.242C97.8381 115.512 107.599 107.501 114.467 97.2231C121.334 86.9451 125 74.8613 125 62.5C124.982 45.9295 118.391 30.0429 106.674 18.3258C94.9571 6.60871 79.0705 0.0180943 62.5 0V0ZM62.5 3.90625C77.3756 3.88995 91.6965 9.55194 102.539 19.7363L19.7363 102.539C11.931 94.1995 6.73347 83.7605 4.78291 72.5059C2.83235 61.2513 4.21386 49.672 8.75751 39.1922C13.3012 28.7125 20.8088 19.7892 30.357 13.5201C39.9052 7.251 51.0776 3.90937 62.5 3.90625V3.90625ZM62.5 121.094C47.6244 121.11 33.3035 115.448 22.4609 105.264L105.264 22.4609C113.069 30.8005 118.267 41.2395 120.217 52.4941C122.168 63.7487 120.786 75.328 116.242 85.8078C111.699 96.2875 104.191 105.211 94.643 111.48C85.0947 117.749 73.9224 121.091 62.5 121.094V121.094Z" fill="black"/>
<g id="no">
<g id="full">
<path id="Vector_2" d="M46.875 63.3496C51.7193 64.2624 56.6092 64.9144 61.5234 65.3027H61.6016C62.1196 65.3118 62.6199 65.1147 62.9926 64.7548C63.3653 64.395 63.5798 63.9018 63.5889 63.3838C63.5979 62.8658 63.4008 62.3654 63.041 61.9927C62.6811 61.62 62.1879 61.4055 61.6699 61.3965C56.9476 61.0162 52.2475 60.397 47.5879 59.541C47.3239 59.4558 47.0448 59.4278 46.7691 59.4589C46.4935 59.49 46.2276 59.5795 45.9893 59.7213C45.7509 59.8632 45.5455 60.0542 45.3867 60.2817C45.2279 60.5091 45.1193 60.7678 45.0683 61.0404C45.0173 61.3131 45.0249 61.5935 45.0907 61.863C45.1565 62.1324 45.2789 62.3848 45.4498 62.6033C45.6208 62.8217 45.8363 63.0013 46.082 63.13C46.3277 63.2587 46.5981 63.3335 46.875 63.3496Z" fill="black"/>
<path id="Vector_3" d="M46.875 50.5859C47.0996 50.5859 52.4414 51.5625 57.2852 52.1484H57.5098C57.7662 52.1625 58.023 52.126 58.2654 52.0409C58.5077 51.9557 58.731 51.8237 58.9223 51.6523C59.1136 51.4809 59.2693 51.2735 59.3805 51.042C59.4917 50.8104 59.5562 50.5592 59.5703 50.3027C59.5844 50.0462 59.5479 49.7895 59.4627 49.5471C59.3776 49.3048 59.2456 49.0815 59.0742 48.8902C58.9028 48.6989 58.6954 48.5431 58.4639 48.432C58.2323 48.3208 57.9811 48.2563 57.7246 48.2422C53.0176 47.7051 47.627 46.7285 47.5684 46.7187C47.0555 46.6268 46.5272 46.7423 46.0996 47.0399C45.6719 47.3375 45.38 47.7928 45.2881 48.3057C45.1961 48.8185 45.3117 49.3468 45.6093 49.7744C45.9069 50.2021 46.3622 50.494 46.875 50.5859V50.5859Z" fill="black"/>
<path id="mask" d="M102.92 29.043C101.945 28.2859 100.809 27.7635 99.6 27.5162C98.3908 27.269 97.1409 27.3035 95.9473 27.6172C91.7773 28.8086 89.1113 33.4766 87.9199 36.2793H87.8418C85.5664 35.625 83.0566 34.6484 80.3906 33.6133C74.7852 31.4062 68.4277 28.9355 62.5 28.9355C55.9473 28.9355 48.4082 31.8652 42.3535 34.2773C40.4004 35.0391 38.6035 35.7519 37.0898 36.2305C35.8594 33.4473 33.1836 28.7793 29.0723 27.5879C27.8786 27.2742 26.6287 27.2397 25.4195 27.4869C24.2103 27.7342 23.0743 28.2566 22.0996 29.0137C20.0098 30.6055 17.5781 33.8769 17.5781 40.5957C17.5781 50.7812 29.9512 70.3125 30.4785 71.123V71.1816C32.2656 76.3965 34.1699 80.8691 35.1855 81.9238C41.0156 87.7344 54.1992 91.7969 62.5 91.7969C63.3984 91.7969 64.3652 91.7969 65.3711 91.6602C65.6276 91.6364 65.8769 91.5624 66.1048 91.4423C66.3327 91.3223 66.5347 91.1585 66.6992 90.9604C66.8638 90.7622 66.9878 90.5336 67.064 90.2876C67.1403 90.0415 67.1673 89.7829 67.1436 89.5264C67.1198 89.2699 67.0458 89.0206 66.9257 88.7927C66.8057 88.5648 66.6419 88.3628 66.4437 88.1982C66.2456 88.0336 66.017 87.9097 65.7709 87.8334C65.5249 87.7572 65.2663 87.7302 65.0098 87.7539C64.1016 87.8906 63.2617 87.8906 62.5 87.8906C54.3359 87.8906 42.4512 83.6523 38.0859 79.1894C36.6211 77.5098 30.2734 60.1367 30.2734 53.6426C30.2734 48.1934 34.2969 41.2988 38.252 39.9707C39.873 39.4336 41.7578 38.6914 43.75 37.9004C49.5117 35.6543 56.6406 32.8418 62.5 32.8418C67.7148 32.8418 73.4473 35.0684 78.9941 37.2266C81.748 38.3008 84.3457 39.3066 86.8066 40C87.1926 40.1226 87.5629 40.2897 87.9102 40.498C88.0087 40.5661 88.1133 40.6249 88.2227 40.6738C91.4941 42.793 94.6094 48.7012 94.834 53.6914C94.856 54.2094 95.0829 54.6974 95.4647 55.0482C95.8466 55.3989 96.3521 55.5835 96.8701 55.5615C97.3881 55.5395 97.8762 55.3126 98.2269 54.9308C98.5776 54.5489 98.7623 54.0434 98.7402 53.5254C98.5059 48.1836 95.5273 41.5723 91.4062 38.1934C92.3828 35.8496 94.502 32.1094 97.0703 31.3574C97.6817 31.2091 98.3188 31.2024 98.9332 31.3378C99.5475 31.4732 100.123 31.7471 100.615 32.1387C102.568 33.5937 103.604 36.5918 103.604 40.5762C103.604 43.8769 101.855 49.1894 98.5645 55.9375C98.4433 56.1672 98.3691 56.4187 98.3463 56.6774C98.3235 56.936 98.3525 57.1967 98.4316 57.444C98.5107 57.6913 98.6383 57.9204 98.807 58.1178C98.9757 58.3152 99.1821 58.477 99.4141 58.5937C99.6829 58.7207 99.9762 58.7873 100.273 58.7891C100.639 58.7898 100.998 58.6876 101.309 58.4943C101.62 58.3009 101.87 58.024 102.031 57.6953C105.635 50.3027 107.461 44.5605 107.461 40.6152C107.422 33.877 104.99 30.6055 102.92 29.043ZM26.3672 53.6426C26.3816 54.4859 26.4501 55.3275 26.5723 56.1621C23.8281 50.498 21.4844 44.4727 21.4844 40.5957C21.4844 36.7187 22.5488 33.6133 24.4727 32.1582C24.965 31.7666 25.5404 31.4927 26.1547 31.3573C26.7691 31.2219 27.4062 31.2286 28.0176 31.377C30.6055 32.1191 32.666 35.8105 33.6914 38.2129C29.2969 41.6797 26.3672 48.3984 26.3672 53.6426Z" fill="black"/>
</g>
<path id="hand" d="M114.189 86.123C112.873 83.3513 111.713 80.5083 110.713 77.6074C110.352 76.6309 110.01 75.6543 109.668 74.7949C108.826 72.775 107.789 70.842 106.572 69.0234C105.559 67.4974 104.668 65.8942 103.906 64.2285C103.284 62.6148 102.855 60.9332 102.627 59.2187C102.45 57.485 101.943 55.8011 101.133 54.2578C100.604 53.4493 99.8551 52.8086 98.9746 52.4107C98.0942 52.0129 97.1185 51.8744 96.1621 52.0117C93.7695 52.334 91.9043 54.1406 91.0352 56.9727C89.7659 60.6894 89.912 64.7436 91.4453 68.3594C88.8477 66.5039 86.6309 64.8828 85.9863 64.2969C85.0098 63.3887 79.0332 58.6328 73.75 54.5312C62.334 45.6152 61.9043 45.6445 60.9863 45.6738C60.0316 45.7616 59.1073 46.056 58.2776 46.5366C57.448 47.0172 56.7328 47.6725 56.1816 48.457C55.8014 49.1151 55.5939 49.8587 55.5785 50.6186C55.5631 51.3784 55.7404 52.1298 56.0938 52.8027C56.8066 54.3262 61.748 58.9941 67.4414 64.0723C66.0128 65.0234 64.9062 66.3854 64.2676 67.9785C64.0045 68.7331 63.9075 69.5357 63.9833 70.3313C64.0592 71.1268 64.3061 71.8966 64.707 72.5879C63.8896 73.4309 63.2605 74.438 62.8616 75.5424C62.4626 76.6468 62.3027 77.8233 62.3926 78.9941C62.5879 80.6348 63.9356 82.666 65.0098 84.0527C64.309 85.0062 63.8105 86.0929 63.5449 87.2461C62.666 91.1523 65.2148 94.082 67.8223 96.4453C68.7988 97.4219 70.3809 98.9648 72.1484 100.811C75.6055 104.424 79.9609 108.926 83.1836 111.201C86.2609 113.326 89.6424 114.972 93.2129 116.084C93.3839 116.155 93.5653 116.198 93.75 116.211C94.2193 116.209 94.6721 116.037 95.0255 115.729C95.3789 115.42 95.6093 114.994 95.6745 114.529C95.7397 114.064 95.6354 113.592 95.3806 113.198C95.1258 112.803 94.7377 112.514 94.2871 112.383C91.1298 111.367 88.1389 109.893 85.4102 108.008C82.4805 105.957 78.3105 101.611 74.9707 98.125C73.1445 96.1719 71.5723 94.5801 70.4395 93.5547C67.1387 90.5664 67.1191 89.1797 67.3535 88.1152C67.4294 87.8067 67.534 87.5059 67.666 87.2168C69.2987 88.9951 71.1492 90.5602 73.1738 91.875C73.3905 92.0269 73.6357 92.1332 73.8946 92.1874C74.1536 92.2417 74.4209 92.2428 74.6803 92.1906C74.9396 92.1384 75.1857 92.0341 75.4036 91.884C75.6214 91.7338 75.8065 91.541 75.9475 91.3171C76.0886 91.0933 76.1827 90.8431 76.2241 90.5818C76.2656 90.3205 76.2535 90.0535 76.1887 89.797C76.1238 89.5405 76.0075 89.2998 75.8468 89.0896C75.6861 88.8795 75.4844 88.7041 75.2539 88.5742C72.9456 87.0433 70.8869 85.1658 69.1504 83.0078V83.0078V82.9492C67.9004 81.5332 66.4551 79.4238 66.3574 78.6426C66.3108 78.0826 66.3776 77.519 66.5538 76.9854C66.73 76.4518 67.0119 75.9592 67.3828 75.5371C69.9707 77.9687 75.459 83.125 77.0898 84.5508C77.4835 84.8486 77.9754 84.9863 78.4665 84.9362C78.9575 84.8861 79.4114 84.6519 79.7368 84.2807C80.0623 83.9095 80.235 83.4288 80.2205 82.9354C80.2059 82.442 80.005 81.9724 79.6582 81.6211C77.5586 79.8145 68.7402 71.4844 68.6524 71.4063C68.6524 71.4063 67.5684 70.3125 67.9395 69.3359C68.3575 68.3349 69.1492 67.5362 70.1465 67.1094C70.316 67.0659 70.4936 67.0646 70.6638 67.1054C70.834 67.1463 70.9917 67.2281 71.1231 67.3437C76.4648 72.0312 81.8652 76.5625 84.5215 78.8379C84.8755 79.1312 85.3215 79.2903 85.7812 79.2871C86.182 79.2875 86.5731 79.1646 86.9016 78.9352C87.2301 78.7057 87.4801 78.3807 87.6176 78.0044C87.7552 77.628 87.7736 77.2184 87.6705 76.8312C87.5673 76.444 87.3476 76.0979 87.041 75.8398C82.6465 72.1484 78.125 68.2715 74.0527 64.707H73.9941C66.3867 58.0469 60.3223 52.4707 59.6387 51.2207C59.4141 50.7617 59.502 50.6055 59.5313 50.5566C59.8635 50.1652 60.3059 49.8828 60.8008 49.7461C64.0625 51.8457 81.2207 65.3711 83.3691 67.3242C85.2148 68.9941 95.4785 76.1133 96.6504 76.8848C96.8608 77.0421 97.1008 77.1553 97.356 77.2177C97.6112 77.28 97.8764 77.2903 98.1357 77.2478C98.3949 77.2053 98.643 77.1109 98.8649 76.9703C99.0868 76.8297 99.2781 76.6458 99.4273 76.4296C99.5765 76.2133 99.6806 75.9692 99.7332 75.7118C99.7859 75.4544 99.7861 75.189 99.7338 74.9316C99.6815 74.6741 99.5778 74.4299 99.4289 74.2134C99.28 73.997 99.0889 73.8128 98.8672 73.6719L96.6309 72.1191C96.5216 70.4011 96.0205 68.7308 95.166 67.2363C94.4238 65.8301 93.3887 62.7832 94.7754 58.2324C95.1758 56.9238 95.8789 56.1133 96.7285 55.9961C96.9452 55.9593 97.1678 55.9837 97.3714 56.0665C97.5749 56.1493 97.7514 56.2873 97.8809 56.4648C98.3908 57.5843 98.7204 58.7775 98.8574 60C99.1329 62.0073 99.6476 63.9744 100.391 65.8594C101.228 67.7097 102.208 69.4924 103.32 71.1914C104.374 72.7629 105.276 74.4305 106.016 76.1719C106.348 77.0508 106.689 77.9883 107.051 78.9453C108.099 81.9962 109.325 84.9831 110.723 87.8906C111.699 89.6973 111.035 93.8965 110.42 96.1328C110.352 96.3803 110.333 96.6389 110.365 96.8936C110.397 97.1483 110.478 97.3943 110.605 97.6174C110.732 97.8406 110.902 98.0365 111.105 98.1939C111.308 98.3514 111.54 98.4674 111.787 98.5352C111.956 98.581 112.13 98.604 112.305 98.6035C112.731 98.6044 113.147 98.4655 113.487 98.208C113.828 97.9506 114.074 97.5887 114.189 97.1777C114.395 96.4648 116.143 89.8438 114.189 86.123Z" fill="black"/>
</g>
</g>
</g>
<defs>
<clipPath id="clip0">
<rect width="125" height="125" fill="white"/>
</clipPath>
</defs>
</svg>
